# xmcd
#
# Track frame offsets:
#	150
#	15295
#	29867
#	49062
#	68172
#	83660
#	99182
#	108300
#	125495
#	137582
#	158245
#	174742
#	199220
#	210205
#
# Disc length: 2991 seconds
#
# Revision: 0
# Processed by: cddbd v1.5.2PL0 Copyright (c) Steve Scherf et al.
# Submitted via: audiograbber 1.83.01
#
DISCID=b40bad0e
DTITLE=The Farewell Drifters - Sweet Summer Breeze
DYEAR=2007
DGENRE=Bluegrass
TTITLE0=Windy City Rails
TTITLE1=Wheels
TTITLE2=Sweet Summer Breeze
TTITLE3=Death Of Jesse McVille
TTITLE4=Holding On
TTITLE5=Love Comes Easy
TTITLE6=You Can Have Her
TTITLE7=Lovely Linda
TTITLE8=Birmingham
TTITLE9=Expecting Rain
TTITLE10=Dark Charlie
TTITLE11=Loaded
TTITLE12=Tavern Light Blues
TTITLE13=Distant Traveler's Son
EXTD=
EXTT0=
EXTT1=
EXTT2=
EXTT3=
EXTT4=
EXTT5=
EXTT6=
EXTT7=
EXTT8=
EXTT9=
EXTT10=
EXTT11=
EXTT12=
EXTT13=
PLAYORDER=
